# xmcd
#
# Track frame offsets: 
#        150
#        14786
#        28087
#        41885
#        55791
#        70151
#        83138
#        97049
#        111525
#        125831
#        140785
#        152270
#        166865
#        181087
#        195028
#        210277
#
# Disc length: 3008 seconds
#
# Revision: 3
# Processed by: cddbd v1.5.2PL0 Copyright (c) Steve Scherf et al.
# Submitted via: ExactAudioCopy v0.99pb4
#
DISCID=da0bbe10
DTITLE=Various Artist - Southern Country Blues, Vol. 2 [CD1]
DYEAR=1997
DGENRE=Blues
TTITLE0=Frank Stokes - Tain't Nobody's Business If I Do (1928)
TTITLE1=Walk Right In - Cannon's Jug Stompers (1929)
TTITLE2=Jim Jackson - Old Dog Blue (1928)
TTITLE3=Memphis Minnie - Pickin' the Blues (1928)
TTITLE4=Memphis Jug Band - Stealin', Stealin' (1928)
TTITLE5=Furry Lewis - Big Chief Blues (1927) 
TTITLE6=Mississippi John Hurt (1928) - Avalon Blues
TTITLE7=Skip James - Cypress Grove Blues(1931) 
TTITLE8=Charley Patton/ High Sheriff Blues (1934) 
TTITLE9=Eddie James ''Son'' House, Jr. - My Black Mama, part 2 (1930)
TTITLE10=Robert Johnson - Crossroads Blues (1936) 
TTITLE11=Big Joe Williams and Sonny Boy Williamson - Break'em on Down (1
TTITLE11=941)
TTITLE12=Bo Carter - Banana in Your Fruit Basket (1931) 
TTITLE13=Mississippi Sheiks - Sittin' on Top of the World (1930) 
TTITLE14=Tommy Johnson/ Big Road Blues (1928) 
TTITLE15=Muddy Waters - Country Blues #1  (1941)
EXTD=correction YEAR: 1997
EXTT0=
EXTT1=
EXTT2=
EXTT3=
EXTT4=
EXTT5=
EXTT6=
EXTT7=
EXTT8=
EXTT9=
EXTT10=
EXTT11=
EXTT12=
EXTT13=
EXTT14=
EXTT15=
PLAYORDER=
